<svg width="149" height="116" viewBox="0 0 149 116" fill="none" xmlns="http://www.w3.org/2000/svg">
<path d="M71.667 101.5V96.6667L81.3337 87H52.3337C49.6753 87 47.3988 86.0527 45.5042 84.158C43.6095 82.2633 42.6638 79.9884 42.667 77.3333V24.1667C42.667 21.5083 43.6143 19.2318 45.509 17.3372C47.4037 15.4425 49.6786 14.4968 52.3337 14.5H129.667C132.325 14.5 134.602 15.4473 136.497 17.342C138.391 19.2367 139.337 21.5116 139.334 24.1667V77.3333C139.334 79.9917 138.386 82.2682 136.492 84.1628C134.597 86.0575 132.322 87.0032 129.667 87H100.667L110.334 96.6667V101.5H71.667Z" fill="black"/>
<path d="M52.2399 51.04H54.3639L56.9799 53.728L54.3639 56.416H52.2399L54.8679 53.728L52.2399 51.04ZM65.6725 51.556V53.02H59.1325V51.556H65.6725ZM65.6725 54.436V55.9H59.1325V54.436H65.6725ZM70.1312 50.8V49.252H73.0232V58H71.2952V50.8H70.1312ZM75.2109 56.104C75.9789 55.464 76.5909 54.932 77.0469 54.508C77.5029 54.076 77.8829 53.628 78.1869 53.164C78.4909 52.7 78.6429 52.244 78.6429 51.796C78.6429 51.388 78.5469 51.068 78.3549 50.836C78.1629 50.604 77.8669 50.488 77.4669 50.488C77.0669 50.488 76.7589 50.624 76.5429 50.896C76.3269 51.16 76.2149 51.524 76.2069 51.988H74.5749C74.6069 51.028 74.8909 50.3 75.4269 49.804C75.9709 49.308 76.6589 49.06 77.4909 49.06C78.4029 49.06 79.1029 49.304 79.5909 49.792C80.0789 50.272 80.3229 50.908 80.3229 51.7C80.3229 52.324 80.1549 52.92 79.8189 53.488C79.4829 54.056 79.0989 54.552 78.6669 54.976C78.2349 55.392 77.6709 55.896 76.9749 56.488H80.5149V57.88H74.5869V56.632L75.2109 56.104ZM83.0375 53.368C82.2375 52.952 81.8375 52.308 81.8375 51.436C81.8375 51.004 81.9455 50.612 82.1615 50.26C82.3855 49.9 82.7175 49.616 83.1575 49.408C83.6055 49.192 84.1495 49.084 84.7895 49.084C85.4295 49.084 85.9695 49.192 86.4095 49.408C86.8575 49.616 87.1895 49.9 87.4055 50.26C87.6295 50.612 87.7415 51.004 87.7415 51.436C87.7415 51.876 87.6335 52.264 87.4175 52.6C87.2015 52.928 86.9135 53.184 86.5535 53.368C86.9935 53.56 87.3375 53.84 87.5855 54.208C87.8335 54.576 87.9575 55.012 87.9575 55.516C87.9575 56.06 87.8175 56.536 87.5375 56.944C87.2655 57.344 86.8895 57.652 86.4095 57.868C85.9295 58.084 85.3895 58.192 84.7895 58.192C84.1895 58.192 83.6495 58.084 83.1695 57.868C82.6975 57.652 82.3215 57.344 82.0415 56.944C81.7695 56.536 81.6335 56.06 81.6335 55.516C81.6335 55.012 81.7575 54.576 82.0055 54.208C82.2535 53.832 82.5975 53.552 83.0375 53.368ZM86.1095 51.676C86.1095 51.284 85.9895 50.98 85.7495 50.764C85.5175 50.548 85.1975 50.44 84.7895 50.44C84.3895 50.44 84.0695 50.548 83.8295 50.764C83.5975 50.98 83.4815 51.288 83.4815 51.688C83.4815 52.048 83.6015 52.336 83.8415 52.552C84.0895 52.768 84.4055 52.876 84.7895 52.876C85.1735 52.876 85.4895 52.768 85.7375 52.552C85.9855 52.328 86.1095 52.036 86.1095 51.676ZM84.7895 54.1C84.3335 54.1 83.9615 54.216 83.6735 54.448C83.3935 54.68 83.2535 55.012 83.2535 55.444C83.2535 55.844 83.3895 56.172 83.6615 56.428C83.9415 56.676 84.3175 56.8 84.7895 56.8C85.2615 56.8 85.6335 56.672 85.9055 56.416C86.1775 56.16 86.3135 55.836 86.3135 55.444C86.3135 55.02 86.1735 54.692 85.8935 54.46C85.6135 54.22 85.2455 54.1 84.7895 54.1ZM89.2844 53.512C89.2844 52.128 89.5324 51.044 90.0284 50.26C90.5324 49.476 91.3644 49.084 92.5244 49.084C93.6844 49.084 94.5124 49.476 95.0084 50.26C95.5124 51.044 95.7644 52.128 95.7644 53.512C95.7644 54.904 95.5124 55.996 95.0084 56.788C94.5124 57.58 93.6844 57.976 92.5244 57.976C91.3644 57.976 90.5324 57.58 90.0284 56.788C89.5324 55.996 89.2844 54.904 89.2844 53.512ZM94.1084 53.512C94.1084 52.92 94.0684 52.424 93.9884 52.024C93.9164 51.616 93.7644 51.284 93.5324 51.028C93.3084 50.772 92.9724 50.644 92.5244 50.644C92.0764 50.644 91.7364 50.772 91.5044 51.028C91.2804 51.284 91.1284 51.616 91.0484 52.024C90.9764 52.424 90.9404 52.92 90.9404 53.512C90.9404 54.12 90.9764 54.632 91.0484 55.048C91.1204 55.456 91.2724 55.788 91.5044 56.044C91.7364 56.292 92.0764 56.416 92.5244 56.416C92.9724 56.416 93.3124 56.292 93.5444 56.044C93.7764 55.788 93.9284 55.456 94.0004 55.048C94.0724 54.632 94.1084 54.12 94.1084 53.512ZM103.766 58L102.398 55.936L101.186 58H99.3856L101.558 54.664L99.3616 51.352H101.258L102.614 53.404L103.838 51.352H105.638L103.454 54.664L105.662 58H103.766ZM114.809 50.524L111.617 58H109.913L113.129 50.716H109.025V49.276H114.809V50.524ZM116.344 56.104C117.112 55.464 117.724 54.932 118.18 54.508C118.636 54.076 119.016 53.628 119.32 53.164C119.624 52.7 119.776 52.244 119.776 51.796C119.776 51.388 119.68 51.068 119.488 50.836C119.296 50.604 119 50.488 118.6 50.488C118.2 50.488 117.892 50.624 117.676 50.896C117.46 51.16 117.348 51.524 117.34 51.988H115.708C115.74 51.028 116.024 50.3 116.56 49.804C117.104 49.308 117.792 49.06 118.624 49.06C119.536 49.06 120.236 49.304 120.724 49.792C121.212 50.272 121.456 50.908 121.456 51.7C121.456 52.324 121.288 52.92 120.952 53.488C120.616 54.056 120.232 54.552 119.8 54.976C119.368 55.392 118.804 55.896 118.108 56.488H121.648V57.88H115.72V56.632L116.344 56.104ZM122.706 53.512C122.706 52.128 122.954 51.044 123.45 50.26C123.954 49.476 124.786 49.084 125.946 49.084C127.106 49.084 127.934 49.476 128.43 50.26C128.934 51.044 129.186 52.128 129.186 53.512C129.186 54.904 128.934 55.996 128.43 56.788C127.934 57.58 127.106 57.976 125.946 57.976C124.786 57.976 123.954 57.58 123.45 56.788C122.954 55.996 122.706 54.904 122.706 53.512ZM127.53 53.512C127.53 52.92 127.49 52.424 127.41 52.024C127.338 51.616 127.186 51.284 126.954 51.028C126.73 50.772 126.394 50.644 125.946 50.644C125.498 50.644 125.158 50.772 124.926 51.028C124.702 51.284 124.55 51.616 124.47 52.024C124.398 52.424 124.362 52.92 124.362 53.512C124.362 54.12 124.398 54.632 124.47 55.048C124.542 55.456 124.694 55.788 124.926 56.044C125.158 56.292 125.498 56.416 125.946 56.416C126.394 56.416 126.734 56.292 126.966 56.044C127.198 55.788 127.35 55.456 127.422 55.048C127.494 54.632 127.53 54.12 127.53 53.512Z" fill="white"/>
<g clip-path="url(#clip0_251_838)">
<g filter="url(#filter0_d_251_838)">
<path d="M5.5 105C3.9875 105 2.69225 104.493 1.61425 103.478C0.536255 102.464 -0.00182866 101.245 4.66893e-06 99.8235H11C9.4875 99.8235 8.19225 99.3162 7.11425 98.3016C6.03625 97.2871 5.49817 96.0689 5.5 94.6471V66.1765C5.5 64.7529 6.039 63.5339 7.117 62.5193C8.195 61.5047 9.48934 60.9983 11 61H55C56.5125 61 57.8078 61.5073 58.8858 62.5219C59.9638 63.5365 60.5018 64.7547 60.5 66.1765V94.6471C60.5 96.0706 59.961 97.2896 58.883 98.3042C57.805 99.3188 56.5107 99.8253 55 99.8235H66C66 101.247 65.461 102.466 64.383 103.481C63.305 104.495 62.0107 105.002 60.5 105H5.5ZM33 102.412C33.7792 102.412 34.4328 102.163 34.9608 101.666C35.4888 101.169 35.7518 100.555 35.75 99.8235C35.75 99.0902 35.486 98.4751 34.958 97.9781C34.43 97.4812 33.7773 97.2336 33 97.2353C32.2208 97.2353 31.5673 97.4838 31.0393 97.9807C30.5113 98.4776 30.2482 99.0919 30.25 99.8235C30.25 100.557 30.514 101.172 31.042 101.669C31.57 102.166 32.2227 102.413 33 102.412Z" fill="black"/>
</g>
</g>
<defs>
<filter id="filter0_d_251_838" x="-10" y="49" width="86" height="64" filterUnits="userSpaceOnUse" color-interpolation-filters="sRGB">
<feFlood flood-opacity="0" result="BackgroundImageFix"/>
<feColorMatrix in="SourceAlpha" type="matrix" values="0 0 0 0 0 0 0 0 0 0 0 0 0 0 0 0 0 0 127 0" result="hardAlpha"/>
<feOffset dy="-2"/>
<feGaussianBlur stdDeviation="5"/>
<feComposite in2="hardAlpha" operator="out"/>
<feColorMatrix type="matrix" values="0 0 0 0 1 0 0 0 0 1 0 0 0 0 1 0 0 0 0.25 0"/>
<feBlend mode="normal" in2="BackgroundImageFix" result="effect1_dropShadow_251_838"/>
<feBlend mode="normal" in="SourceGraphic" in2="effect1_dropShadow_251_838" result="shape"/>
</filter>
<clipPath id="clip0_251_838">
<rect width="66" height="66" fill="white" transform="translate(0 50)"/>
</clipPath>
</defs>
</svg>
