<svg width="129" height="101" viewBox="0 0 129 101" fill="none" xmlns="http://www.w3.org/2000/svg">
<path d="M101.53 21.041H17.3345C14.5992 21.041 12.3818 22.9252 12.3818 25.2493V79.9577C12.3818 82.2819 14.5992 84.166 17.3345 84.166H101.53C104.265 84.166 106.482 82.2819 106.482 79.9577V25.2493C106.482 22.9252 104.265 21.041 101.53 21.041Z" stroke="black" stroke-width="4"/>
<path d="M27.2402 56.8112V48.3945" stroke="black" stroke-width="4" stroke-linecap="round" stroke-linejoin="round"/>
<path d="M37.9245 54.812L35.9625 52.796L37.9245 50.78H39.5085L37.5465 52.796L39.5085 54.812H37.9245ZM42.9759 50.6V49.439H45.1449V56H43.8489V50.6H42.9759ZM46.7856 54.578C47.3616 54.098 47.8206 53.699 48.1626 53.381C48.5046 53.057 48.7896 52.721 49.0176 52.373C49.2456 52.025 49.3596 51.683 49.3596 51.347C49.3596 51.041 49.2876 50.801 49.1436 50.627C48.9996 50.453 48.7776 50.366 48.4776 50.366C48.1776 50.366 47.9466 50.468 47.7846 50.672C47.6226 50.87 47.5386 51.143 47.5326 51.491H46.3086C46.3326 50.771 46.5456 50.225 46.9476 49.853C47.3556 49.481 47.8716 49.295 48.4956 49.295C49.1796 49.295 49.7046 49.478 50.0706 49.844C50.4366 50.204 50.6196 50.681 50.6196 51.275C50.6196 51.743 50.4936 52.19 50.2416 52.616C49.9896 53.042 49.7016 53.414 49.3776 53.732C49.0536 54.044 48.6306 54.422 48.1086 54.866H50.7636V55.91H46.3176V54.974L46.7856 54.578ZM52.6556 52.526C52.0556 52.214 51.7556 51.731 51.7556 51.077C51.7556 50.753 51.8366 50.459 51.9986 50.195C52.1666 49.925 52.4156 49.712 52.7456 49.556C53.0816 49.394 53.4896 49.313 53.9696 49.313C54.4496 49.313 54.8546 49.394 55.1846 49.556C55.5206 49.712 55.7696 49.925 55.9316 50.195C56.0996 50.459 56.1836 50.753 56.1836 51.077C56.1836 51.407 56.1026 51.698 55.9406 51.95C55.7786 52.196 55.5626 52.388 55.2926 52.526C55.6226 52.67 55.8806 52.88 56.0666 53.156C56.2526 53.432 56.3456 53.759 56.3456 54.137C56.3456 54.545 56.2406 54.902 56.0306 55.208C55.8266 55.508 55.5446 55.739 55.1846 55.901C54.8246 56.063 54.4196 56.144 53.9696 56.144C53.5196 56.144 53.1146 56.063 52.7546 55.901C52.4006 55.739 52.1186 55.508 51.9086 55.208C51.7046 54.902 51.6026 54.545 51.6026 54.137C51.6026 53.759 51.6956 53.432 51.8816 53.156C52.0676 52.874 52.3256 52.664 52.6556 52.526ZM54.9596 51.257C54.9596 50.963 54.8696 50.735 54.6896 50.573C54.5156 50.411 54.2756 50.33 53.9696 50.33C53.6696 50.33 53.4296 50.411 53.2496 50.573C53.0756 50.735 52.9886 50.966 52.9886 51.266C52.9886 51.536 53.0786 51.752 53.2586 51.914C53.4446 52.076 53.6816 52.157 53.9696 52.157C54.2576 52.157 54.4946 52.076 54.6806 51.914C54.8666 51.746 54.9596 51.527 54.9596 51.257ZM53.9696 53.075C53.6276 53.075 53.3486 53.162 53.1326 53.336C52.9226 53.51 52.8176 53.759 52.8176 54.083C52.8176 54.383 52.9196 54.629 53.1236 54.821C53.3336 55.007 53.6156 55.1 53.9696 55.1C54.3236 55.1 54.6026 55.004 54.8066 54.812C55.0106 54.62 55.1126 54.377 55.1126 54.083C55.1126 53.765 55.0076 53.519 54.7976 53.345C54.5876 53.165 54.3116 53.075 53.9696 53.075ZM57.3408 52.634C57.3408 51.596 57.5268 50.783 57.8988 50.195C58.2768 49.607 58.9008 49.313 59.7708 49.313C60.6408 49.313 61.2618 49.607 61.6338 50.195C62.0118 50.783 62.2008 51.596 62.2008 52.634C62.2008 53.678 62.0118 54.497 61.6338 55.091C61.2618 55.685 60.6408 55.982 59.7708 55.982C58.9008 55.982 58.2768 55.685 57.8988 55.091C57.5268 54.497 57.3408 53.678 57.3408 52.634ZM60.9588 52.634C60.9588 52.19 60.9288 51.818 60.8688 51.518C60.8148 51.212 60.7008 50.963 60.5268 50.771C60.3588 50.579 60.1068 50.483 59.7708 50.483C59.4348 50.483 59.1798 50.579 59.0058 50.771C58.8378 50.963 58.7238 51.212 58.6638 51.518C58.6098 51.818 58.5828 52.19 58.5828 52.634C58.5828 53.09 58.6098 53.474 58.6638 53.786C58.7178 54.092 58.8318 54.341 59.0058 54.533C59.1798 54.719 59.4348 54.812 59.7708 54.812C60.1068 54.812 60.3618 54.719 60.5358 54.533C60.7098 54.341 60.8238 54.092 60.8778 53.786C60.9318 53.474 60.9588 53.09 60.9588 52.634ZM68.2017 56L67.1757 54.452L66.2667 56H64.9167L66.5457 53.498L64.8987 51.014H66.3207L67.3377 52.553L68.2557 51.014H69.6057L67.9677 53.498L69.6237 56H68.2017ZM76.4845 50.393L74.0905 56H72.8125L75.2245 50.537H72.1465V49.457H76.4845V50.393ZM77.6352 54.578C78.2112 54.098 78.6702 53.699 79.0122 53.381C79.3542 53.057 79.6392 52.721 79.8672 52.373C80.0952 52.025 80.2092 51.683 80.2092 51.347C80.2092 51.041 80.1372 50.801 79.9932 50.627C79.8492 50.453 79.6272 50.366 79.3272 50.366C79.0272 50.366 78.7962 50.468 78.6342 50.672C78.4722 50.87 78.3882 51.143 78.3822 51.491H77.1582C77.1822 50.771 77.3952 50.225 77.7972 49.853C78.2052 49.481 78.7212 49.295 79.3452 49.295C80.0292 49.295 80.5542 49.478 80.9202 49.844C81.2862 50.204 81.4692 50.681 81.4692 51.275C81.4692 51.743 81.3432 52.19 81.0912 52.616C80.8392 53.042 80.5512 53.414 80.2272 53.732C79.9032 54.044 79.4802 54.422 78.9582 54.866H81.6132V55.91H77.1672V54.974L77.6352 54.578ZM82.4072 52.634C82.4072 51.596 82.5932 50.783 82.9652 50.195C83.3432 49.607 83.9672 49.313 84.8372 49.313C85.7072 49.313 86.3282 49.607 86.7002 50.195C87.0782 50.783 87.2672 51.596 87.2672 52.634C87.2672 53.678 87.0782 54.497 86.7002 55.091C86.3282 55.685 85.7072 55.982 84.8372 55.982C83.9672 55.982 83.3432 55.685 82.9652 55.091C82.5932 54.497 82.4072 53.678 82.4072 52.634ZM86.0252 52.634C86.0252 52.19 85.9952 51.818 85.9352 51.518C85.8812 51.212 85.7672 50.963 85.5932 50.771C85.4252 50.579 85.1732 50.483 84.8372 50.483C84.5012 50.483 84.2462 50.579 84.0722 50.771C83.9042 50.963 83.7902 51.212 83.7302 51.518C83.6762 51.818 83.6492 52.19 83.6492 52.634C83.6492 53.09 83.6762 53.474 83.7302 53.786C83.7842 54.092 83.8982 54.341 84.0722 54.533C84.2462 54.719 84.5012 54.812 84.8372 54.812C85.1732 54.812 85.4282 54.719 85.6022 54.533C85.7762 54.341 85.8902 54.092 85.9442 53.786C85.9982 53.474 86.0252 53.09 86.0252 52.634Z" fill="black"/>
<path d="M100.154 54.6133H95.714C94.5365 54.6133 93.4073 55.0858 92.5747 55.927C91.7422 56.7681 91.2744 57.9089 91.2744 59.0985V91.9899C91.2744 93.1795 91.7422 94.3203 92.5747 95.1614C93.4073 96.0026 94.5365 96.4751 95.714 96.4751H110.513C111.69 96.4751 112.819 96.0026 113.652 95.1614C114.484 94.3203 114.952 93.1795 114.952 91.9899V59.0985C114.952 57.9089 114.484 56.7681 113.652 55.927C112.819 55.0858 111.69 54.6133 110.513 54.6133H106.073M100.154 54.6133V57.6034H106.073V54.6133M100.154 54.6133H106.073M100.154 91.9899H106.073" stroke="black" stroke-width="3" stroke-linecap="round" stroke-linejoin="round"/>
</svg>
